<svg width="32" height="32" viewBox="0 0 32 32" fill="none" xmlns="http://www.w3.org/2000/svg">
<rect width="32" height="32" rx="16" fill="#1F1F1F"/>
<path d="M16.896 13.016L16.368 13.128C16.064 12.12 15.52 10.968 14.192 10.968C13.168 10.968 12.544 11.704 12.544 12.6C12.544 13.592 13.2 14.12 14.56 14.808C16.08 15.56 17.36 16.408 17.36 18.072C17.36 19.848 15.856 21.24 13.584 21.24C12.976 21.24 12.432 21.144 12 21.016C11.568 20.872 11.28 20.76 11.088 20.664C10.944 20.28 10.736 18.936 10.624 18.04L11.168 17.88C11.456 18.888 12.32 20.616 13.888 20.616C14.96 20.616 15.616 19.912 15.616 18.84C15.616 17.816 14.848 17.224 13.648 16.584C12.224 15.864 10.912 15.016 10.912 13.384C10.912 11.704 12.24 10.36 14.448 10.36C15.36 10.36 16.192 10.616 16.592 10.76C16.656 11.336 16.752 12.008 16.896 13.016ZM19.8423 21.192C19.2503 21.192 18.7863 20.744 18.7863 20.072C18.7863 19.448 19.2503 18.984 19.8583 18.984C20.4823 18.984 20.9463 19.448 20.9463 20.072C20.9463 20.744 20.4823 21.192 19.8423 21.192Z" fill="white"/>
</svg>
